<svg xmlns="http://www.w3.org/2000/svg" data-name="Warstwa 1" viewBox="0 0 468 96"><title>logo-white</title><path fill="#fff" d="M1.03 0l48 64-16 32 48-32-80-64zM127 28.38l-5.39 25.48.11.14 13.4-12.68h11.49l-15.24 12.87 8.73 21.08h-10.24l-5.58-15.17-4.86 4.14-2.3 11h-9.26l9.79-46.89H127zm40.56 46.89l1.05-4.73h-.13a14.57 14.57 0 0 1-11.89 5.58q-9.92 0-9.92-9.06a11.86 11.86 0 0 1 .1-1.35q.1-.82.26-1.68t.33-1.61q.16-.76.3-1.22l4.2-19.9h9.33l-4.14 19.9a6.72 6.72 0 0 0-.23 1q-.1.56-.2 1.15a11 11 0 0 0-.13 1.15v.89a2.94 2.94 0 0 0 1.41 2.5 5.23 5.23 0 0 0 3.05 1 8.05 8.05 0 0 0 3.71-.82 9.15 9.15 0 0 0 2.76-2.13 11.8 11.8 0 0 0 1.9-3 18.49 18.49 0 0 0 1.15-3.48l3.81-18.06h9.33l-7.09 34h-8.93zm32.58-33.95l-.92 4.2.13.13a9.37 9.37 0 0 1 4.3-4 14 14 0 0 1 5.88-1.25q6.17 0 9.52 3.61t3.35 9.79a30.45 30.45 0 0 1-1.12 8.2 22.11 22.11 0 0 1-3.41 7.16 17.5 17.5 0 0 1-5.75 5.06 16.65 16.65 0 0 1-8.18 1.91 13.45 13.45 0 0 1-2.94-.33 11.48 11.48 0 0 1-2.76-1 9.07 9.07 0 0 1-2.3-1.67 6.73 6.73 0 0 1-1.54-2.4h-.2l-3.55 16.42h-9.26l9.72-45.84h9zm1.77 7.52a12 12 0 0 0-3.18 3.58 17.32 17.32 0 0 0-1.9 4.7 19.65 19.65 0 0 0-.62 4.7 8.18 8.18 0 0 0 1.64 5.35 6.15 6.15 0 0 0 5.06 2 7.63 7.63 0 0 0 4.6-1.38 11.46 11.46 0 0 0 3.15-3.48 16.31 16.31 0 0 0 1.84-4.6 20.59 20.59 0 0 0 .59-4.73 9.75 9.75 0 0 0-.43-2.89 7.16 7.16 0 0 0-1.25-2.4 6.17 6.17 0 0 0-2.07-1.64 6.4 6.4 0 0 0-2.89-.62 7.4 7.4 0 0 0-4.54 1.41zm46.69 4.5l-1.71 8h-19.76l1.71-8h19.76zM277 41.32l-1.44 6.24H269l-3.48 16.88q-.13.53-.2 1a4.67 4.67 0 0 0-.07.62 2.77 2.77 0 0 0 .3 1.41 2.08 2.08 0 0 0 .76.76 2.29 2.29 0 0 0 1 .3h1.08a28.16 28.16 0 0 0 3.35-.2l-1.58 7.16q-1.45.13-2.89.23t-3 .1a18 18 0 0 1-3.25-.3 8.73 8.73 0 0 1-2.89-1.05 5.58 5.58 0 0 1-2-2.07 6.38 6.38 0 0 1-.69-3.41 9.35 9.35 0 0 1 .13-1.48q.13-.82.33-1.74l3.81-18.19h-6.11l1.4-6.26h6L263.12 31h9.33l-2.1 10.31H277zm9 19.83v1.38a6.48 6.48 0 0 0 1.84 4.79q1.84 1.84 5.65 1.84a6.66 6.66 0 0 0 2.46-.43 7.36 7.36 0 0 0 1.9-1.08 7.9 7.9 0 0 0 1.44-1.51q.62-.85 1.15-1.64h9.33a23.86 23.86 0 0 1-2.63 5.06 14.66 14.66 0 0 1-3.61 3.64 14.91 14.91 0 0 1-4.89 2.2 26 26 0 0 1-6.47.72 19.77 19.77 0 0 1-6.21-.92 12.45 12.45 0 0 1-4.76-2.79 12.68 12.68 0 0 1-3.05-4.63 17.54 17.54 0 0 1-1.15-6.43 23.69 23.69 0 0 1 1.31-7.85 21.68 21.68 0 0 1 3.71-6.7 17.79 17.79 0 0 1 5.88-4.66 17.24 17.24 0 0 1 7.82-1.74 21.52 21.52 0 0 1 6.47.92 13.26 13.26 0 0 1 5 2.79 12.7 12.7 0 0 1 3.22 4.66 16.91 16.91 0 0 1 1.15 6.47 29.18 29.18 0 0 1-.53 5.32H286a3 3 0 0 0 0 .59zm16.39-9.1a6.56 6.56 0 0 0-.89-2.33 4.63 4.63 0 0 0-1.9-1.68 7.39 7.39 0 0 0-3.28-.62 9.52 9.52 0 0 0-3.48.59 8.74 8.74 0 0 0-2.63 1.58 9.06 9.06 0 0 0-1.87 2.3 17.6 17.6 0 0 0-1.34 2.76h15.57a14.7 14.7 0 0 0-.21-2.59zm30.21-23.67l-10 46.89h-9.26l9.92-46.89h9.33zm8.08 32.77v1.38a6.48 6.48 0 0 0 1.84 4.79q1.84 1.84 5.65 1.84a6.66 6.66 0 0 0 2.46-.43 7.36 7.36 0 0 0 1.9-1.08 7.9 7.9 0 0 0 1.47-1.5q.62-.85 1.15-1.64h9.33a23.86 23.86 0 0 1-2.63 5.06 14.66 14.66 0 0 1-3.61 3.64 14.91 14.91 0 0 1-4.89 2.2 26 26 0 0 1-6.47.72 19.77 19.77 0 0 1-6.21-.92 12.45 12.45 0 0 1-4.76-2.79 12.68 12.68 0 0 1-3.05-4.63 17.54 17.54 0 0 1-1.08-6.44 23.69 23.69 0 0 1 1.31-7.85 21.68 21.68 0 0 1 3.71-6.7 17.79 17.79 0 0 1 5.88-4.66 17.24 17.24 0 0 1 7.82-1.74 21.52 21.52 0 0 1 6.47.92 13.26 13.26 0 0 1 5 2.79 12.7 12.7 0 0 1 3.22 4.66 16.91 16.91 0 0 1 1.15 6.47 29.18 29.18 0 0 1-.53 5.32h-25a3 3 0 0 0-.13.59zm16.39-9.1a6.56 6.56 0 0 0-.89-2.33 4.63 4.63 0 0 0-1.9-1.68 7.39 7.39 0 0 0-3.28-.62 9.52 9.52 0 0 0-3.48.59 8.74 8.74 0 0 0-2.63 1.58 9.06 9.06 0 0 0-1.87 2.3 17.6 17.6 0 0 0-1.28 2.76h15.56a14.7 14.7 0 0 0-.23-2.59zm13.16-4.49l1.31-6.24h5.58a53.27 53.27 0 0 1 1.44-5.75 12.75 12.75 0 0 1 2.17-4.17 8.36 8.36 0 0 1 3.64-2.56 17.19 17.19 0 0 1 5.94-.85q1.51 0 3.05.13t3.05.39l-1.41 6.7-1.51-.13q-.8-.08-1.49-.08a6.62 6.62 0 0 0-2.69.43 3.14 3.14 0 0 0-1.41 1.25 6.74 6.74 0 0 0-.76 2q-.26 1.15-.66 2.66h6.63l-1.31 6.24h-6.7l-5.84 27.72h-9.36l5.85-27.72h-5.52zm23.68 5.81a20.28 20.28 0 0 1 3.87-6.73 18.26 18.26 0 0 1 6.14-4.57 19.14 19.14 0 0 1 8.14-1.67 22 22 0 0 1 6.4.89 14 14 0 0 1 5 2.66 11.8 11.8 0 0 1 3.25 4.47 16.17 16.17 0 0 1 1.15 6.37 25.55 25.55 0 0 1-1.35 8.37 19.87 19.87 0 0 1-3.91 6.8 18.11 18.11 0 0 1-6.21 4.53 20 20 0 0 1-8.31 1.64q-7.09 0-11.33-3.65t-4.24-10.93a24.52 24.52 0 0 1 1.4-8.18zm8.41 11.07a7.16 7.16 0 0 0 1.28 2.43 6.3 6.3 0 0 0 2.1 1.67 6.37 6.37 0 0 0 2.89.62 7.25 7.25 0 0 0 4.5-1.41 11.51 11.51 0 0 0 3.09-3.55 17.4 17.4 0 0 0 1.82-4.62 20.29 20.29 0 0 0 .59-4.66 8.82 8.82 0 0 0-1.59-5.46q-1.54-2-5.29-2a7.16 7.16 0 0 0-4.43 1.41 11.27 11.27 0 0 0-3.05 3.51 17.68 17.68 0 0 0-1.77 4.56 19.89 19.89 0 0 0-.59 4.63 9.68 9.68 0 0 0 .45 2.87zm43.77-23.12L445 46h.13a14.5 14.5 0 0 1 11.89-5.65q9.92 0 9.92 9.13a8.84 8.84 0 0 1-.13 1.35q-.13.82-.3 1.67t-.33 1.61c-.11.5-.19.91-.23 1.21l-4.2 19.9h-9.33l4.14-19.9q.13-.79.36-2.1a12.62 12.62 0 0 0 .23-2 2.94 2.94 0 0 0-1.41-2.5 5.23 5.23 0 0 0-3.05-1 8 8 0 0 0-3.71.82 9.13 9.13 0 0 0-2.76 2.13 11.77 11.77 0 0 0-1.9 3 18.5 18.5 0 0 0-1.15 3.48l-3.81 18.06h-9.26l7-34h8.93z"/></svg>