<svg id="Warstwa_1" data-name="Warstwa 1" xmlns="http://www.w3.org/2000/svg" viewBox="0 0 22.68 22.68"><title>a</title><path d="M4.67,19.12a2.22,2.22,0,1,0,2.22-2.22A2.22,2.22,0,0,0,4.67,19.12Zm11.11,0A2.22,2.22,0,1,0,18,16.89,2.22,2.22,0,0,0,15.78,19.12ZM8.61,13.86l12.3-3.51a0.63,0.63,0,0,0,.43-0.57V3.67H5.67V1.78a0.45,0.45,0,0,0-.44-0.44H1.78a0.45,0.45,0,0,0-.44.44V3.56H3.5L5.68,13.62l0.21,1v1.67a0.45,0.45,0,0,0,.44.44H20.89a0.45,0.45,0,0,0,.44-0.44V14.67H8.84C7.56,14.67,7.54,14.17,8.61,13.86Z" style="fill:#1d1d1b"/></svg>