<?xml version="1.0" encoding="UTF-8" standalone="no"?>
<svg
   xmlns:dc="http://purl.org/dc/elements/1.1/"
   xmlns:cc="http://creativecommons.org/ns#"
   xmlns:rdf="http://www.w3.org/1999/02/22-rdf-syntax-ns#"
   xmlns:svg="http://www.w3.org/2000/svg"
   xmlns="http://www.w3.org/2000/svg"
   xmlns:sodipodi="http://sodipodi.sourceforge.net/DTD/sodipodi-0.dtd"
   xmlns:inkscape="http://www.inkscape.org/namespaces/inkscape"
   id="Warstwa_1"
   data-name="Warstwa 1"
   viewBox="0 0 468 96"
   version="1.1"
   sodipodi:docname="logo-white.svg"
   inkscape:version="0.92.1 r15371">
  <metadata
     id="metadata5635">
    <rdf:RDF>
      <cc:Work
         rdf:about="">
        <dc:format>image/svg+xml</dc:format>
        <dc:type
           rdf:resource="http://purl.org/dc/dcmitype/StillImage" />
        <dc:title>logo-white</dc:title>
      </cc:Work>
    </rdf:RDF>
  </metadata>
  <defs
     id="defs5633" />
  <sodipodi:namedview
     pagecolor="#ffffff"
     bordercolor="#666666"
     borderopacity="1"
     objecttolerance="10"
     gridtolerance="10"
     guidetolerance="10"
     inkscape:pageopacity="0"
     inkscape:pageshadow="2"
     inkscape:window-width="1366"
     inkscape:window-height="706"
     id="namedview5631"
     showgrid="false"
     inkscape:zoom="0.73931624"
     inkscape:cx="134.96472"
     inkscape:cy="48"
     inkscape:window-x="-8"
     inkscape:window-y="-8"
     inkscape:window-maximized="1"
     inkscape:current-layer="Warstwa_1" />
  <title
     id="title5604">logo-white</title>
  <polygon
     points="1.03 0 49.03 64 33.03 96 81.03 64 1.03 0"
     style="fill:#ffffff"
     id="polygon5606" />
  <path
     d="M127,28.38l-5.39,25.48L121.72,54l13.4-12.68h11.49L131.37,54.19l8.73,21.08H129.86L124.28,60.1l-4.86,4.14-2.3,11h-9.26l9.79-46.89H127Z"
     style="fill:#ffffff"
     id="path5608" />
  <path
     d="M167.56,75.27l1.05-4.73h-0.13a14.57,14.57,0,0,1-11.89,5.58q-9.92,0-9.92-9.06a11.86,11.86,0,0,1,.1-1.35q0.1-.82.26-1.68t0.33-1.61q0.16-.76.3-1.22l4.2-19.9h9.33l-4.14,19.9a6.72,6.72,0,0,0-.23,1q-0.1.56-.2,1.15a11,11,0,0,0-.13,1.15c0,0.37,0,.67,0,0.89a2.94,2.94,0,0,0,1.41,2.5,5.23,5.23,0,0,0,3.05,1,8.05,8.05,0,0,0,3.71-.82,9.15,9.15,0,0,0,2.76-2.13,11.8,11.8,0,0,0,1.9-3,18.49,18.49,0,0,0,1.15-3.48l3.81-18.06h9.33l-7.09,34h-8.93Z"
     style="fill:#ffffff"
     id="path5610" />
  <path
     d="M200.14,41.32l-0.92,4.2,0.13,0.13a9.37,9.37,0,0,1,4.3-4,14,14,0,0,1,5.88-1.25q6.17,0,9.52,3.61t3.35,9.79A30.45,30.45,0,0,1,221.28,62a22.11,22.11,0,0,1-3.41,7.16,17.5,17.5,0,0,1-5.75,5.06,16.65,16.65,0,0,1-8.18,1.91A13.45,13.45,0,0,1,201,75.8a11.48,11.48,0,0,1-2.76-1,9.07,9.07,0,0,1-2.3-1.67,6.73,6.73,0,0,1-1.54-2.4h-0.2l-3.55,16.42h-9.26l9.72-45.84h9Zm1.77,7.52a12,12,0,0,0-3.18,3.58,17.32,17.32,0,0,0-1.9,4.7,19.65,19.65,0,0,0-.62,4.7,8.18,8.18,0,0,0,1.64,5.35,6.15,6.15,0,0,0,5.06,2,7.63,7.63,0,0,0,4.6-1.38,11.46,11.46,0,0,0,3.15-3.48,16.31,16.31,0,0,0,1.84-4.6,20.59,20.59,0,0,0,.59-4.73,9.75,9.75,0,0,0-.43-2.89,7.16,7.16,0,0,0-1.25-2.4,6.17,6.17,0,0,0-2.07-1.64,6.4,6.4,0,0,0-2.89-.62A7.4,7.4,0,0,0,201.91,48.84Z"
     style="fill:#ffffff"
     id="path5612" />
  <path
     d="M248.6,53.34l-1.71,8H227.13l1.71-8H248.6Z"
     style="fill:#ffffff"
     id="path5614" />
  <path
     d="M277,41.32l-1.44,6.24H269l-3.48,16.88q-0.13.53-.2,1a4.67,4.67,0,0,0-.07.62,2.77,2.77,0,0,0,.3,1.41,2.08,2.08,0,0,0,.76.76,2.29,2.29,0,0,0,1,.3q0.56,0,1.08,0a28.16,28.16,0,0,0,3.35-.2l-1.58,7.16q-1.45.13-2.89,0.23t-3,.1a18,18,0,0,1-3.25-.3,8.73,8.73,0,0,1-2.89-1.05,5.58,5.58,0,0,1-2-2.07,6.38,6.38,0,0,1-.69-3.41,9.35,9.35,0,0,1,.13-1.48q0.13-.82.33-1.74l3.81-18.19h-6.11L255,41.32h6L263.12,31h9.33l-2.1,10.31H277Z"
     style="fill:#ffffff"
     id="path5616" />
  <path
     d="M286,61.15v1.38a6.48,6.48,0,0,0,1.84,4.79q1.84,1.84,5.65,1.84a6.66,6.66,0,0,0,2.46-.43,7.36,7.36,0,0,0,1.9-1.08,7.9,7.9,0,0,0,1.44-1.51q0.62-.85,1.15-1.64h9.33a23.86,23.86,0,0,1-2.63,5.06,14.66,14.66,0,0,1-3.61,3.64,14.91,14.91,0,0,1-4.89,2.2,26,26,0,0,1-6.47.72,19.77,19.77,0,0,1-6.21-.92,12.45,12.45,0,0,1-4.76-2.79,12.68,12.68,0,0,1-3.05-4.63A17.54,17.54,0,0,1,277,61.35a23.69,23.69,0,0,1,1.31-7.85,21.68,21.68,0,0,1,3.71-6.7,17.79,17.79,0,0,1,5.88-4.66,17.24,17.24,0,0,1,7.82-1.74,21.52,21.52,0,0,1,6.47.92,13.26,13.26,0,0,1,5,2.79,12.7,12.7,0,0,1,3.22,4.66,16.91,16.91,0,0,1,1.15,6.47,29.18,29.18,0,0,1-.53,5.32H286A3,3,0,0,0,286,61.15Zm16.39-9.1a6.56,6.56,0,0,0-.89-2.33,4.63,4.63,0,0,0-1.9-1.68,7.39,7.39,0,0,0-3.28-.62,9.52,9.52,0,0,0-3.48.59,8.74,8.74,0,0,0-2.63,1.58,9.06,9.06,0,0,0-1.87,2.3A17.6,17.6,0,0,0,287,54.65h15.57A14.7,14.7,0,0,0,302.36,52.06Z"
     style="fill:#ffffff"
     id="path5618" />
  <path
     d="M332.6,28.38l-10,46.89h-9.26l9.92-46.89h9.33Z"
     style="fill:#ffffff"
     id="path5620" />
  <path
     d="M340.68,61.15v1.38a6.48,6.48,0,0,0,1.84,4.79q1.84,1.84,5.65,1.84a6.66,6.66,0,0,0,2.46-.43,7.36,7.36,0,0,0,1.9-1.08A7.9,7.9,0,0,0,354,66.15q0.62-.85,1.15-1.64h9.33a23.86,23.86,0,0,1-2.63,5.06,14.66,14.66,0,0,1-3.61,3.64,14.91,14.91,0,0,1-4.89,2.2,26,26,0,0,1-6.47.72,19.77,19.77,0,0,1-6.21-.92,12.45,12.45,0,0,1-4.76-2.79,12.68,12.68,0,0,1-3.05-4.63,17.54,17.54,0,0,1-1.08-6.44,23.69,23.69,0,0,1,1.31-7.85,21.68,21.68,0,0,1,3.71-6.7,17.79,17.79,0,0,1,5.88-4.66,17.24,17.24,0,0,1,7.82-1.74,21.52,21.52,0,0,1,6.47.92,13.26,13.26,0,0,1,5,2.79,12.7,12.7,0,0,1,3.22,4.66,16.91,16.91,0,0,1,1.15,6.47,29.18,29.18,0,0,1-.53,5.32h-25A3,3,0,0,0,340.68,61.15Zm16.39-9.1a6.56,6.56,0,0,0-.89-2.33,4.63,4.63,0,0,0-1.9-1.68,7.39,7.39,0,0,0-3.28-.62,9.52,9.52,0,0,0-3.48.59,8.74,8.74,0,0,0-2.63,1.58,9.06,9.06,0,0,0-1.87,2.3,17.6,17.6,0,0,0-1.28,2.76H357.3A14.7,14.7,0,0,0,357.07,52.06Z"
     style="fill:#ffffff"
     id="path5622" />
  <path
     d="M370.23,47.56l1.31-6.24h5.58a53.27,53.27,0,0,1,1.44-5.75,12.75,12.75,0,0,1,2.17-4.17,8.36,8.36,0,0,1,3.64-2.56,17.19,17.19,0,0,1,5.94-.85q1.51,0,3.05.13t3.05,0.39L395,35.21l-1.51-.13Q392.69,35,392,35a6.62,6.62,0,0,0-2.69.43,3.14,3.14,0,0,0-1.41,1.25,6.74,6.74,0,0,0-.76,2q-0.26,1.15-.66,2.66h6.63l-1.31,6.24h-6.7l-5.84,27.72H369.9l5.85-27.72h-5.52Z"
     style="fill:#ffffff"
     id="path5624" />
  <path
     d="M393.91,53.37a20.28,20.28,0,0,1,3.87-6.73,18.26,18.26,0,0,1,6.14-4.57,19.14,19.14,0,0,1,8.14-1.67,22,22,0,0,1,6.4.89,14,14,0,0,1,5,2.66,11.8,11.8,0,0,1,3.25,4.47,16.17,16.17,0,0,1,1.15,6.37,25.55,25.55,0,0,1-1.35,8.37,19.87,19.87,0,0,1-3.91,6.8,18.11,18.11,0,0,1-6.21,4.53,20,20,0,0,1-8.31,1.64q-7.09,0-11.33-3.65t-4.24-10.93A24.52,24.52,0,0,1,393.91,53.37Zm8.41,11.07a7.16,7.16,0,0,0,1.28,2.43,6.3,6.3,0,0,0,2.1,1.67,6.37,6.37,0,0,0,2.89.62,7.25,7.25,0,0,0,4.5-1.41,11.51,11.51,0,0,0,3.09-3.55A17.4,17.4,0,0,0,418,59.58a20.29,20.29,0,0,0,.59-4.66A8.82,8.82,0,0,0,417,49.46q-1.54-2-5.29-2a7.16,7.16,0,0,0-4.43,1.41,11.27,11.27,0,0,0-3.05,3.51,17.68,17.68,0,0,0-1.77,4.56,19.89,19.89,0,0,0-.59,4.63A9.68,9.68,0,0,0,402.32,64.44Z"
     style="fill:#ffffff"
     id="path5626" />
  <path
     d="M446.09,41.32L445,46h0.13a14.5,14.5,0,0,1,11.89-5.65q9.92,0,9.92,9.13a8.84,8.84,0,0,1-.13,1.35q-0.13.82-.3,1.67t-0.33,1.61c-0.11.5-.19,0.91-0.23,1.21l-4.2,19.9h-9.33l4.14-19.9q0.13-.79.36-2.1a12.62,12.62,0,0,0,.23-2,2.94,2.94,0,0,0-1.41-2.5,5.23,5.23,0,0,0-3.05-1,8,8,0,0,0-3.71.82,9.13,9.13,0,0,0-2.76,2.13,11.77,11.77,0,0,0-1.9,3,18.5,18.5,0,0,0-1.15,3.48l-3.81,18.06h-9.26l7-34h8.93Z"
     style="fill:#ffffff"
     id="path5628" />
</svg>
